<svg xmlns="http://www.w3.org/2000/svg" xmlns:xlink="http://www.w3.org/1999/xlink" width="500" zoomAndPan="magnify" viewBox="0 0 375 374.999991" height="500" preserveAspectRatio="xMidYMid meet" version="1.0"><defs><g/></defs><rect x="-37.5" width="450" fill="#ffffff" y="-37.499999" height="449.999989" fill-opacity="1"/><rect x="-37.5" width="450" fill="#ffffff" y="-37.499999" height="449.999989" fill-opacity="1"/><g fill="#001f3f" fill-opacity="1"><g transform="translate(91.136887, 172.200845)"><g><path d="M 96.375 -9.28125 C 91.71875 -5.570312 85.675781 -2.703125 78.25 -0.671875 C 70.820312 1.359375 61.695312 2.375 50.875 2.375 C 40.0625 2.375 28.5625 1.390625 16.375 -0.578125 L 16.375 -126.03125 C 28.6875 -128 39.363281 -128.984375 48.40625 -128.984375 C 57.445312 -128.984375 64.867188 -128.125 70.671875 -126.40625 C 76.484375 -124.695312 81.226562 -122.382812 84.90625 -119.46875 C 92.144531 -113.820312 95.765625 -106.503906 95.765625 -97.515625 C 95.765625 -88.535156 92.492188 -81.097656 85.953125 -75.203125 C 93.703125 -72.785156 99.703125 -68.21875 103.953125 -61.5 C 107.816406 -55.46875 109.75 -48.785156 109.75 -41.453125 C 109.75 -34.128906 108.6875 -27.863281 106.5625 -22.65625 C 104.4375 -17.445312 101.039062 -12.988281 96.375 -9.28125 Z M 41.59375 -78.71875 C 44.257812 -78.28125 47.59375 -78.0625 51.59375 -78.0625 C 55.59375 -78.0625 58.875 -78.582031 61.4375 -79.625 C 64.007812 -80.675781 65.992188 -81.992188 67.390625 -83.578125 C 69.679688 -86.179688 70.828125 -89.800781 70.828125 -94.4375 C 70.828125 -104.144531 65.113281 -109 53.6875 -109 C 48.863281 -109 44.832031 -108.804688 41.59375 -108.421875 Z M 55.6875 -58.359375 C 50.351562 -58.359375 45.65625 -58.007812 41.59375 -57.3125 L 41.59375 -19.890625 C 46.039062 -18.753906 50.707031 -18.1875 55.59375 -18.1875 C 60.476562 -18.1875 64.773438 -18.769531 68.484375 -19.9375 C 72.203125 -21.113281 75.328125 -22.71875 77.859375 -24.75 C 83.003906 -28.9375 85.578125 -34.265625 85.578125 -40.734375 C 85.578125 -52.484375 75.613281 -58.359375 55.6875 -58.359375 Z M 55.6875 -58.359375 "/></g></g></g><g fill="#808080" fill-opacity="1"><g transform="translate(153.207731, 241.965513)"><g><path d="M 94.0625 -11.234375 C 83.582031 -2.160156 70.921875 2.375 56.078125 2.375 C 41.472656 2.375 29.410156 -1.96875 19.890625 -10.65625 C 10.566406 -19.101562 5.90625 -29.578125 5.90625 -42.078125 C 5.90625 -53.378906 10.789062 -62.769531 20.5625 -70.25 C 23.476562 -72.539062 26.617188 -74.445312 29.984375 -75.96875 C 26.367188 -82.0625 24.5625 -88.023438 24.5625 -93.859375 C 24.5625 -99.703125 25.515625 -104.6875 27.421875 -108.8125 C 29.328125 -112.9375 31.957031 -116.488281 35.3125 -119.46875 C 42.488281 -125.820312 51.691406 -129 62.921875 -129 C 70.921875 -129 78.253906 -127.09375 84.921875 -123.28125 C 84.597656 -117.882812 84.4375 -113.726562 84.4375 -110.8125 C 84.4375 -106.8125 84.484375 -104.300781 84.578125 -103.28125 C 84.679688 -102.269531 84.710938 -101.554688 84.671875 -101.140625 C 84.640625 -100.734375 84.59375 -100.40625 84.53125 -100.15625 C 84.28125 -99.769531 84.21875 -99.320312 84.34375 -98.8125 L 83.875 -98.15625 C 81.332031 -101.957031 76.410156 -104.6875 69.109375 -106.34375 C 66.890625 -106.84375 64.035156 -107.09375 60.546875 -107.09375 C 57.054688 -107.09375 54.179688 -106.046875 51.921875 -103.953125 C 49.671875 -101.859375 48.546875 -99.226562 48.546875 -96.0625 C 48.546875 -90.601562 52.421875 -83.648438 60.171875 -75.203125 C 62.578125 -72.535156 65.492188 -69.519531 68.921875 -66.15625 L 91.296875 -45.703125 C 93.328125 -51.222656 94.34375 -57.03125 94.34375 -63.125 C 94.34375 -66.863281 93.390625 -69.972656 91.484375 -72.453125 C 91.046875 -73.015625 90.695312 -73.394531 90.4375 -73.59375 L 90.4375 -74.734375 L 104.25 -69.203125 C 106.90625 -68.128906 109.054688 -67.304688 110.703125 -66.734375 C 112.359375 -66.160156 113.601562 -65.6875 114.4375 -65.3125 C 115.894531 -64.675781 116.625 -63.976562 116.625 -63.21875 C 116.625 -51.789062 114.050781 -40.9375 108.90625 -30.65625 C 115.382812 -25.320312 119.539062 -22.304688 121.375 -21.609375 C 123.21875 -20.910156 124.613281 -20.5 125.5625 -20.375 C 128.613281 -19.988281 130.394531 -20.113281 130.90625 -20.75 L 131.375 -20.1875 L 121.5625 1.234375 C 120.488281 1.992188 118.648438 2.375 116.046875 2.375 C 112.046875 2.375 104.71875 -2.160156 94.0625 -11.234375 Z M 37.6875 -27.3125 C 42.957031 -22.75 49.289062 -20.46875 56.6875 -20.46875 C 64.082031 -20.46875 70.734375 -22.5 76.640625 -26.5625 L 66.359375 -35.984375 C 55.378906 -45.953125 46.648438 -54.644531 40.171875 -62.0625 C 33.253906 -57.050781 29.796875 -51.148438 29.796875 -44.359375 C 29.796875 -37.566406 32.425781 -31.882812 37.6875 -27.3125 Z M 37.6875 -27.3125 "/></g></g></g><g fill="#ff4500" fill-opacity="1"><g transform="translate(89.553471, 307.993608)"><g><path d="M 96.15625 -9.25 C 91.507812 -5.550781 85.476562 -2.6875 78.0625 -0.65625 C 70.65625 1.363281 61.554688 2.375 50.765625 2.375 C 39.972656 2.375 28.5 1.394531 16.34375 -0.5625 L 16.34375 -125.75 C 28.625 -127.71875 39.273438 -128.703125 48.296875 -128.703125 C 57.316406 -128.703125 64.722656 -127.84375 70.515625 -126.125 C 76.316406 -124.414062 81.050781 -122.109375 84.71875 -119.203125 C 91.9375 -113.566406 95.546875 -106.265625 95.546875 -97.296875 C 95.546875 -88.335938 92.285156 -80.914062 85.765625 -75.03125 C 93.492188 -72.625 99.476562 -68.066406 103.71875 -61.359375 C 107.582031 -55.335938 109.515625 -48.671875 109.515625 -41.359375 C 109.515625 -34.046875 108.453125 -27.789062 106.328125 -22.59375 C 104.203125 -17.40625 100.8125 -12.957031 96.15625 -9.25 Z M 41.5 -78.546875 C 44.164062 -78.097656 47.492188 -77.875 51.484375 -77.875 C 55.472656 -77.875 58.75 -78.394531 61.3125 -79.4375 C 63.875 -80.488281 65.851562 -81.804688 67.25 -83.390625 C 69.519531 -85.984375 70.65625 -89.59375 70.65625 -94.21875 C 70.65625 -103.90625 64.957031 -108.75 53.5625 -108.75 C 48.75 -108.75 44.726562 -108.5625 41.5 -108.1875 Z M 55.5625 -58.21875 C 50.238281 -58.21875 45.550781 -57.867188 41.5 -57.171875 L 41.5 -19.84375 C 45.9375 -18.707031 50.59375 -18.140625 55.46875 -18.140625 C 60.34375 -18.140625 64.628906 -18.722656 68.328125 -19.890625 C 72.035156 -21.066406 75.15625 -22.664062 77.6875 -24.6875 C 82.820312 -28.875 85.390625 -34.195312 85.390625 -40.65625 C 85.390625 -52.363281 75.445312 -58.21875 55.5625 -58.21875 Z M 55.5625 -58.21875 "/></g></g></g></svg>